<svg width="24" height="28" viewBox="0 0 24 28" fill="none" xmlns="http://www.w3.org/2000/svg">
<path d="M14.0163 4.35089H5.96076V17.473H4.35619C3.46659 17.473 2.65339 17.8129 2.0585 18.3652C1.45815 18.9175 1.0652 19.6822 1.01062 20.5319C1.0652 21.201 1.38174 21.8011 1.85656 22.2365C2.33684 22.6667 2.97539 22.9322 3.67944 22.9322H22.9997V4.35089H14.0163Z" fill="white" stroke="#282828" stroke-linecap="round" stroke-linejoin="round"/>
<path d="M1 20.739C1 20.67 1.00507 20.6009 1.01014 20.5319C1.00507 20.4629 1 20.3938 1 20.3248V20.739Z" fill="white" stroke="#282828" stroke-linecap="round" stroke-linejoin="round"/>
<path d="M4.35649 1C2.50087 1 1 2.46038 1 4.26593V20.3248C1 20.3938 1 20.4628 1.01092 20.5319C1.12007 18.8272 2.57728 17.4731 4.35649 17.4731H5.96105V1H4.35649Z" fill="white" stroke="#282828" stroke-linecap="round" stroke-linejoin="round"/>
<path d="M10.7202 19.3158V20.3619V27L14.3769 23.1499L18.0335 27V20.3619V19.3158" fill="#EE5750"/>
<path d="M10.7202 19.3158V20.3619V27L14.3769 23.1499L18.0335 27V20.3619V19.3158" stroke="#282828" stroke-linecap="round" stroke-linejoin="round"/>
<path d="M14.3769 11.1802C11.6044 11.1802 9.35583 13.3681 9.35583 16.0658C9.35583 17.8129 10.3 19.337 11.7136 20.2027C12.4886 20.6753 13.3945 20.9514 14.3769 20.9514C15.3593 20.9514 16.2653 20.6753 17.0348 20.2027C18.4484 19.337 19.3926 17.8129 19.3926 16.0658C19.3926 13.3681 17.144 11.1802 14.3715 11.1802H14.3769Z" fill="#6ABBEE" stroke="#282828" stroke-linecap="round" stroke-linejoin="round"/>
</svg>
