<svg width="22" height="24" viewBox="0 0 22 24" fill="none" xmlns="http://www.w3.org/2000/svg">
<path d="M13.2659 22.0639L13.1039 22.9238C13.0887 23.0165 13.0077 23.0835 12.9165 23.0835H7.05322C6.96209 23.0835 6.88107 23.0165 6.86588 22.9238L6.70386 22.0639H13.2659V22.0639Z" fill="#FFEB92"/>
<path d="M12.4101 19.1444H16.1823C15.9747 20.2823 14.9874 21.1474 13.8076 21.1474H6.16204C4.98229 21.1474 3.99495 20.2823 3.78735 19.1444H12.4101Z" fill="#FDC367"/>
<path d="M18.4304 12.9964H21.0684C20.9519 13.8717 20.5013 14.6595 19.7924 15.2053C19.0178 15.7975 18.0557 16.0034 17.119 15.7923C17.7114 14.953 18.157 14.0107 18.4304 12.9964V12.9964Z" fill="#97D0DC"/>
<path d="M2.12659 11.05H17.843C17.7468 12.8213 17.0835 14.4484 16.0152 15.7408C16 15.7563 15.9848 15.7769 15.9747 15.7975C15.038 16.9097 13.7975 17.7644 12.3443 18.2278H7.62532C4.47089 17.2238 2.30887 14.3815 2.12659 11.05V11.05Z" fill="#97D0DC"/>
<path d="M18.557 9.09333C18.8405 9.09333 19.0684 9.33019 19.0684 9.61339C19.0684 9.89659 18.8405 10.1335 18.557 10.1335H1.4127C1.12915 10.1335 0.89624 9.90174 0.89624 9.61339C0.89624 9.32504 1.12915 9.09333 1.4127 9.09333H18.557Z" fill="#43AAC2"/>
<path d="M22 12.5381C22 13.8872 21.3924 15.1229 20.3342 15.9365C19.5949 16.4978 18.7241 16.7912 17.8278 16.7912C17.443 16.7912 17.0481 16.7398 16.6633 16.6265L16.4962 16.5801C15.9291 17.2186 15.2658 17.7747 14.5266 18.2279H16.6785C16.9266 18.2279 17.1291 18.4338 17.1291 18.6861C17.1291 20.4214 15.838 21.8477 14.1823 22.0382L13.9899 23.0938C13.8886 23.619 13.438 24 12.9165 24H7.05316C6.53165 24 6.08101 23.619 5.97975 23.0938L5.78734 22.0382C4.13165 21.8477 2.84557 20.4214 2.84557 18.6861C2.84557 18.4338 3.04304 18.2279 3.29114 18.2279H5.44304C2.97215 16.7192 1.37722 14.0519 1.23038 11.0345C0.536709 10.9419 0 10.3446 0 9.61339C0 8.82558 0.632911 8.18194 1.41266 8.18194H18.557C19.3367 8.18194 19.9696 8.82558 19.9696 9.61339C19.9696 10.3446 19.4329 10.9419 18.7392 11.0345C18.719 11.3847 18.6886 11.7348 18.6329 12.0798H21.5494C21.7975 12.0798 22 12.2858 22 12.5381V12.5381ZM21.0684 12.9964H18.4304C18.157 14.0107 17.7114 14.953 17.119 15.7923C18.0557 16.0034 19.0177 15.7975 19.7924 15.2053C20.5013 14.6595 20.9519 13.8717 21.0684 12.9964V12.9964ZM19.0684 9.61339C19.0684 9.33019 18.8405 9.09333 18.557 9.09333H1.41266C1.12911 9.09333 0.896203 9.33019 0.896203 9.61339C0.896203 9.89659 1.12911 10.1335 1.41266 10.1335H18.557C18.8405 10.1335 19.0684 9.90174 19.0684 9.61339ZM17.843 11.05H2.12658C2.30886 14.3815 4.47089 17.2238 7.62532 18.2279H12.3443C13.7975 17.7644 15.038 16.9097 15.9747 15.7975C15.9848 15.7769 16 15.7563 16.0152 15.7408C17.0835 14.4484 17.7468 12.8213 17.843 11.05ZM16.1823 19.1444H3.78734C3.99494 20.2823 4.98228 21.1474 6.16203 21.1474H13.8076C14.9873 21.1474 15.9747 20.2823 16.1823 19.1444V19.1444ZM13.1038 22.9238L13.2658 22.0639H6.7038L6.86582 22.9238C6.88101 23.0165 6.96203 23.0835 7.05316 23.0835H12.9165C13.0076 23.0835 13.0886 23.0165 13.1038 22.9238V22.9238Z" fill="#282828"/>
<path d="M13.0987 2.56426C13.7113 3.59923 13.6607 4.90195 12.9721 5.88543L12.4151 6.67839C12.324 6.80197 12.1873 6.86891 12.0455 6.86891C11.9544 6.86891 11.8632 6.84317 11.7873 6.78653C11.5848 6.6372 11.5341 6.354 11.681 6.14804L12.2379 5.35507C12.7189 4.67024 12.7544 3.75885 12.3291 3.03797C11.8379 2.20382 11.767 1.16885 12.1468 0.278052C12.248 0.046342 12.5113 -0.0617893 12.7392 0.0360438C12.967 0.139026 13.0734 0.40678 12.9721 0.63849C12.7088 1.26153 12.7544 1.98241 13.0987 2.56426V2.56426Z" fill="#282828"/>
<path d="M9.95951 2.56426C10.5722 3.59923 10.5215 4.90195 9.83293 5.88543L9.27596 6.67839C9.18482 6.80197 9.04812 6.86891 8.90634 6.86891C8.8152 6.86891 8.72406 6.84317 8.64812 6.78653C8.44558 6.6372 8.40001 6.354 8.54179 6.14804L9.09875 5.35507C9.57976 4.67024 9.6152 3.75885 9.18989 3.03797C8.69875 2.20382 8.62786 1.16885 9.00761 0.278052C9.10888 0.046342 9.37217 -0.0617893 9.60001 0.0360438C9.82786 0.139026 9.93419 0.40678 9.83799 0.63849C9.56963 1.26153 9.62027 1.98241 9.95951 2.56426V2.56426Z" fill="#282828"/>
<path d="M6.82529 2.56426C7.43288 3.59923 7.38225 4.90195 6.69364 5.88543L6.13668 6.67839C6.05061 6.80197 5.90883 6.86891 5.77212 6.86891C5.68099 6.86891 5.58985 6.84317 5.50883 6.78653C5.3063 6.6372 5.26073 6.354 5.4025 6.14804L5.95947 5.35507C6.44048 4.67024 6.47592 3.75885 6.05061 3.03797C5.55947 2.20382 5.49364 1.16885 5.87339 0.278052C5.96959 0.046342 6.23288 -0.0617893 6.4658 0.0360438C6.69364 0.139026 6.79491 0.40678 6.69871 0.63849C6.43542 1.26153 6.48099 1.98241 6.82529 2.56426V2.56426Z" fill="#282828"/>
</svg>
