<svg width="24" height="24" viewBox="0 0 24 24" fill="none" xmlns="http://www.w3.org/2000/svg">
<path d="M2.32217 21.6803C0.844218 20.2019 3.98016 14.6704 9.32498 9.32424C14.6698 3.97812 20.2 0.844096 21.678 2.31972" stroke="#282828" stroke-linecap="round" stroke-linejoin="round"/>
<path d="M23 12.0013C23 12.1949 22.9946 12.3857 22.9839 12.5792C22.9597 13.0469 22.9059 13.5065 22.8226 13.9554C22.5136 15.7025 21.7881 17.3071 20.7535 18.6618C20.0011 19.6509 19.0848 20.5057 18.0475 21.1911C16.3841 22.2877 14.4117 22.9436 12.2862 23C12.1921 23 12.0981 23 12.0013 23C9.09918 23 6.45768 21.8765 4.49066 20.0353C2.34091 18.0302 1 15.173 1 12.0013C1 6.49126 5.04959 1.92731 10.3353 1.12364C10.8781 1.04032 11.4317 1 11.9987 1C12.1733 1 12.348 1 12.52 1.01344C13.8743 1.07526 15.1642 1.38436 16.3438 1.89236C20.1516 3.53195 22.8522 7.25999 22.9919 11.6385C22.9973 11.7594 23 11.8804 23 12.0013Z" fill="#879CD8" stroke="#282828" stroke-linecap="round" stroke-linejoin="round"/>
<path d="M2.78967 12.3239V12.3696C2.78967 12.7916 3.13094 13.1329 3.55283 13.1329H6.73983C8.07805 13.1329 9.16099 14.2161 9.16099 15.5547V16.2078C9.16099 16.8771 8.88958 17.4819 8.45157 17.92C8.01356 18.3581 7.40894 18.6296 6.73983 18.6296C5.95786 18.6296 5.22695 19.0059 4.77012 19.6429L4.48797 20.038C2.34091 18.0302 1 15.173 1 12.0013C1 6.49127 5.04959 1.92731 10.3326 1.12364V3.67978C10.3326 5.25755 9.51032 6.72242 8.16404 7.54221L7.81739 7.75455C7.48687 7.95614 7.18322 8.20073 6.9145 8.47758C6.64578 8.75443 6.41468 9.06622 6.22389 9.40489C5.60853 10.5042 4.57127 11.281 3.37816 11.5794C3.0342 11.6654 2.78967 11.9691 2.78967 12.3239Z" fill="#FFBE57" stroke="#282828" stroke-linecap="round" stroke-linejoin="round"/>
<path d="M20.7535 18.6618C18.7972 21.2287 15.7392 22.9113 12.2861 23L12.8316 21.8792C13.1622 21.1992 13.8501 20.7691 14.6052 20.7691H15.0298C15.7607 20.7691 16.4325 20.3632 16.7737 19.7155C17.115 19.0677 17.7868 18.6618 18.5177 18.6618H20.7561H20.7535Z" fill="#FFBE57" stroke="#282828" stroke-linecap="round" stroke-linejoin="round"/>
<path d="M19.8183 17.2641C19.4313 17.2641 19.1196 16.9524 19.1196 16.5653V16.4175C19.1196 15.7643 19.3991 15.1434 19.8855 14.7107C20.13 14.493 20.517 14.6677 20.517 14.9956V16.5653C20.517 16.9524 20.2053 17.2641 19.8183 17.2641Z" fill="#FFBE57" stroke="#282828" stroke-linecap="round" stroke-linejoin="round"/>
<path d="M19.5684 11.0257C19.5684 10.5042 19.1465 10.0849 18.6279 10.0849H15.0969C13.9092 10.0849 13.1245 11.3187 13.627 12.3965L15.4597 16.31C15.7123 16.8475 16.2497 17.1889 16.8436 17.1889C17.6873 17.1889 18.3699 16.5062 18.3699 15.6622V12.9824C18.3699 12.7271 18.4747 12.4798 18.6601 12.3024L19.2808 11.7084C19.4663 11.531 19.5711 11.2864 19.5711 11.0284L19.5684 11.0257Z" fill="#FFBE57" stroke="#282828" stroke-linecap="round" stroke-linejoin="round"/>
<path d="M22.992 11.6385C22.8496 7.26269 20.1517 3.53196 16.3439 1.89238V2.73099C16.3439 2.84119 16.3493 2.9487 16.3627 3.05353C16.4433 3.71205 16.094 4.34907 15.5055 4.6528L14.7719 5.02909C14.35 5.24681 14.0867 5.67955 14.0867 6.15261C14.0867 6.84876 14.651 7.4159 15.3496 7.4159H16.7362C17.4322 7.4159 17.9992 6.85145 17.9992 6.15261V5.20112C17.9992 4.78181 18.3378 4.44314 18.757 4.44314C19.3562 4.44314 19.8426 5.20918 19.8426 6.1553C19.8426 6.62836 19.9635 7.05573 20.1597 7.36483C20.3559 7.67393 20.6273 7.86746 20.9282 7.86746H21.0492C21.6484 7.86746 22.1348 8.63349 22.1348 9.57961V10.9101C22.1348 11.7245 22.4949 12.4072 22.9813 12.5792C22.992 12.3884 22.9974 12.1949 22.9974 12.0014C22.9974 11.8078 22.9974 11.7595 22.992 11.6385Z" fill="#FFBE57" stroke="#282828" stroke-linecap="round" stroke-linejoin="round"/>
<path d="M21.6778 2.31975C23.1558 3.79806 20.0198 9.32964 14.675 14.6758C9.33021 20.0219 3.79997 23.1586 2.32202 21.6803" stroke="#282828" stroke-linecap="round" stroke-linejoin="round"/>
<path d="M14.6322 13.1598L12.856 14.9365L9.7147 12.9125L7.95728 11.781L8.68819 11.0526L10.8191 11.8078L14.6322 13.1598Z" fill="#D9E7F8" stroke="#282828" stroke-linecap="round" stroke-linejoin="round"/>
<path d="M16.9189 20.7449L13.7642 15.8476L15.5404 14.071L17.6498 20.0165L16.9189 20.7449Z" fill="#D9E7F8" stroke="#282828" stroke-linecap="round" stroke-linejoin="round"/>
<path d="M10.8889 21.2933L10.6605 19.2774C12.7861 18.006 15.7151 15.5036 16.2713 14.9473C16.9915 14.2269 18.362 11.8105 17.8057 11.2542C17.2495 10.6978 14.8337 12.0686 14.1135 12.7889C13.5573 13.3453 11.0555 16.2724 9.78448 18.4011L7.76909 18.1727L7.29614 18.6457L9.35721 19.6107C9.36796 19.6322 9.37871 19.6537 9.39484 19.6698C9.41096 19.6859 9.42977 19.6967 9.45395 19.7074L10.4187 21.769L10.8916 21.2959L10.8889 21.2933Z" fill="#D9E7F8" stroke="#282828" stroke-linecap="round" stroke-linejoin="round"/>
<g style="mix-blend-mode:darken">
<path d="M10.8191 11.8078L9.7147 12.9125L7.95728 11.781L8.68819 11.0526L10.8191 11.8078Z" fill="#879CD8"/>
</g>
<g style="mix-blend-mode:darken">
<path d="M16.892 17.8824L15.7876 18.9871L16.9189 20.7449L17.6498 20.0165L16.892 17.8824Z" fill="#879CD8"/>
</g>
<g style="mix-blend-mode:darken">
<path d="M15.7716 14.4527C15.2315 14.9929 12.5792 17.4281 10.6068 18.9629C10.6095 18.9683 10.6149 18.9736 10.6176 18.979C10.6444 19.0247 10.6606 19.0731 10.6632 19.1242C10.674 19.1725 10.6713 19.2209 10.6579 19.272V19.2827C12.7807 18.0141 15.7125 15.5063 16.2687 14.9499C16.9835 14.235 18.3378 11.8509 17.8165 11.2703C18.0557 11.6251 16.481 13.7431 15.7716 14.4527Z" fill="#AAC7E2"/>
</g>
</svg>
