<svg width="24" height="22" viewBox="0 0 24 22" fill="none" xmlns="http://www.w3.org/2000/svg">
<path d="M23 18.4702H1V10.6867H5.44164L6.40829 8.16018C6.79495 7.15159 7.88553 6.38751 8.94141 6.38751H13.7251C14.7364 6.38751 15.8616 7.07009 16.3475 7.9768L17.7999 10.6867H20.1149C21.7012 10.6867 22.995 12.0162 22.995 13.6463V18.4702H23Z" fill="#F8CE00" stroke="#282828" stroke-linecap="round" stroke-linejoin="round"/>
<path d="M8.3268 18.516C8.3268 19.9372 7.20648 21.0834 5.82838 21.0834C4.45028 21.0834 3.32996 19.9321 3.32996 18.516C3.32996 17.0999 4.45028 15.9487 5.82838 15.9487C7.20648 15.9487 8.3268 17.0999 8.3268 18.516Z" fill="#6ABBEE" stroke="#282828" stroke-linecap="round" stroke-linejoin="round"/>
<path d="M20.4373 18.516C20.4373 19.9372 19.317 21.0834 17.9389 21.0834C16.5608 21.0834 15.4404 19.9321 15.4404 18.516C15.4404 17.0999 16.5608 15.9487 17.9389 15.9487C19.317 15.9487 20.4373 17.0999 20.4373 18.516Z" fill="#6ABBEE" stroke="#282828" stroke-linecap="round" stroke-linejoin="round"/>
<path d="M11.4003 0.916687V2.80652" stroke="#282828" stroke-linecap="round" stroke-linejoin="round"/>
<path d="M7.7666 1.91507L8.68864 3.5553" stroke="#282828" stroke-linecap="round" stroke-linejoin="round"/>
<path d="M14.1117 3.5553L15.0337 1.91507" stroke="#282828" stroke-linecap="round" stroke-linejoin="round"/>
</svg>
