<svg width="24" height="24" viewBox="0 0 24 24" fill="none" xmlns="http://www.w3.org/2000/svg">
<path d="M19.4695 11.0683L12.0021 19.4741L4.53027 11.0683L7.75229 6.67988H16.252L19.4695 11.0683Z" fill="#B0EADB" stroke="#282828" stroke-linecap="round" stroke-linejoin="round"/>
<path d="M4.53027 11.0683H19.4695" stroke="#282828" stroke-linecap="round" stroke-linejoin="round"/>
<path d="M15.9705 11.0683L12.0022 19.4741L8.02942 11.0683L9.74098 6.67989H14.259L15.9705 11.0683Z" stroke="#282828" stroke-linecap="round" stroke-linejoin="round"/>
<path d="M9.74109 6.67989L12.0023 11.0683L14.2591 6.67989" stroke="#282828" stroke-linecap="round" stroke-linejoin="round"/>
<path d="M12.0023 11.0683V19.4742" stroke="#282828" stroke-linecap="round" stroke-linejoin="round"/>
<path d="M12.0023 3.09141V1" stroke="#282828" stroke-linecap="round" stroke-linejoin="round"/>
<path d="M7.54668 4.28455L6.50098 2.47467" stroke="#282828" stroke-linecap="round" stroke-linejoin="round"/>
<path d="M4.2846 7.54684L2.47473 6.50114" stroke="#282828" stroke-linecap="round" stroke-linejoin="round"/>
<path d="M3.09141 12.0022H1" stroke="#282828" stroke-linecap="round" stroke-linejoin="round"/>
<path d="M4.2846 16.4577L2.47473 17.4989" stroke="#282828" stroke-linecap="round" stroke-linejoin="round"/>
<path d="M7.54668 19.7199L6.50098 21.5298" stroke="#282828" stroke-linecap="round" stroke-linejoin="round"/>
<path d="M12.0023 20.9131V23" stroke="#282828" stroke-linecap="round" stroke-linejoin="round"/>
<path d="M16.4576 19.7199L17.4989 21.5298" stroke="#282828" stroke-linecap="round" stroke-linejoin="round"/>
<path d="M19.72 16.4577L21.5298 17.4989" stroke="#282828" stroke-linecap="round" stroke-linejoin="round"/>
<path d="M20.913 12.0022H22.9999" stroke="#282828" stroke-linecap="round" stroke-linejoin="round"/>
<path d="M19.72 7.54684L21.5298 6.50114" stroke="#282828" stroke-linecap="round" stroke-linejoin="round"/>
<path d="M16.4576 4.28455L17.4989 2.47467" stroke="#282828" stroke-linecap="round" stroke-linejoin="round"/>
</svg>
