<svg width="24" height="20" viewBox="0 0 24 20" fill="none" xmlns="http://www.w3.org/2000/svg">
<path d="M17.7844 6.98294H1.54395V19.6176H17.7844V6.98294Z" fill="#EDF2F8"/>
<path d="M9.67222 0.474213L18.5864 6.98297H0.755981L9.67222 0.474213Z" fill="#4F88FF"/>
<path d="M17.2752 6.98298L9.67223 1.4314L2.06726 6.98298H17.2752Z" fill="#74AAFF"/>
<path d="M9.96507 10.4288H4.35107V15.9804H9.96507V10.4288Z" fill="#FFAA4C"/>
<path d="M9.96496 11.0031H5.15295V15.9803H9.96496V11.0031Z" fill="#FFC960"/>
<path d="M9.66415 5.45148C10.2732 5.45148 10.7669 4.98008 10.7669 4.39859C10.7669 3.8171 10.2732 3.3457 9.66415 3.3457C9.05512 3.3457 8.5614 3.8171 8.5614 4.39859C8.5614 4.98008 9.05512 5.45148 9.66415 5.45148Z" fill="#4F88FF"/>
<path d="M17.7844 6.98294H1.54395V7.74868H17.7844V6.98294Z" fill="#D5E1EF"/>
<path d="M17.7845 8.34979C17.586 8.33256 17.3855 8.32108 17.183 8.32108C13.7505 8.32108 10.9675 10.9782 10.9675 14.2555C10.9675 16.6197 12.4171 18.6623 14.5144 19.6157H17.7845V8.34979Z" fill="#D5E1EF"/>
<path d="M17.7845 19.6176C20.9957 19.6176 23.599 17.1321 23.599 14.066C23.599 11 20.9957 8.51443 17.7845 8.51443C14.5732 8.51443 11.97 11 11.97 14.066C11.97 17.1321 14.5732 19.6176 17.7845 19.6176Z" fill="#FF5F5F"/>
<path d="M20.3429 12.4407C19.7434 11.8683 18.773 11.8683 18.1755 12.4407L17.8848 12.7183L17.5941 12.4407C16.9946 11.8683 16.0242 11.8683 15.4267 12.4407C14.8272 13.0131 14.8272 13.9397 15.4267 14.5101L17.8888 16.859L20.3429 14.5101C20.9424 13.9377 20.9424 13.0112 20.3429 12.4407Z" fill="white"/>
<path d="M17.8888 17.0524C17.8347 17.0524 17.7846 17.0314 17.7465 16.9969L15.2844 14.648C14.6087 14.0029 14.6087 12.9519 15.2844 12.3068C15.6112 11.9947 16.0463 11.8224 16.5094 11.8224C16.9726 11.8224 17.4076 11.9947 17.7345 12.3068L17.8828 12.4484L18.0312 12.3068C18.358 11.9947 18.7931 11.8224 19.2563 11.8224C19.7194 11.8224 20.1545 11.9947 20.4813 12.3068C21.157 12.9519 21.157 14.001 20.4813 14.648L18.0272 16.9969C17.9891 17.0333 17.939 17.0524 17.8848 17.0524H17.8888ZM16.5114 12.2034C16.1545 12.2034 15.8217 12.3355 15.5691 12.5767C15.0498 13.0725 15.0498 13.8804 15.5691 14.3762L17.8888 16.5911L20.2026 14.3762C20.7219 13.8804 20.7219 13.0725 20.2026 12.5767C19.952 12.3355 19.6172 12.2034 19.2603 12.2034C18.9034 12.2034 18.5705 12.3355 18.3179 12.5767L18.0272 12.8543C17.949 12.9289 17.8227 12.9289 17.7445 12.8543L17.4538 12.5767C17.2031 12.3355 16.8683 12.2034 16.5114 12.2034Z" fill="#252D32"/>
<path d="M1.44375 19.8091C1.27733 19.8091 1.143 19.6808 1.143 19.522V7.3659H0.300897C0.172577 7.3659 0.056287 7.28741 0.016187 7.17064C-0.025918 7.05386 0.016187 6.9256 0.118442 6.85094L9.4838 0.0588659C9.59207 -0.019622 9.74044 -0.019622 9.8467 0.0588659L19.2101 6.85094C19.3123 6.9256 19.3544 7.05386 19.3123 7.17064C19.2702 7.28741 19.1559 7.3659 19.0276 7.3659H18.1855V8.41879C18.1855 8.57768 18.0512 8.70594 17.8847 8.70594C17.7183 8.70594 17.584 8.57768 17.584 8.41879V7.07875C17.584 6.91986 17.7183 6.7916 17.8847 6.7916H18.1354L9.66425 0.646568L1.19312 6.7916H1.44375C1.61016 6.7916 1.7445 6.91986 1.7445 7.07875V19.522C1.7445 19.6808 1.61016 19.8091 1.44375 19.8091Z" fill="#252D32"/>
<path d="M17.9851 7.17443H1.54413C1.43385 7.17443 1.34363 7.08829 1.34363 6.983C1.34363 6.87771 1.43385 6.79156 1.54413 6.79156H17.9851C18.0954 6.79156 18.1856 6.87771 18.1856 6.983C18.1856 7.08829 18.0954 7.17443 17.9851 7.17443Z" fill="#252D32"/>
<path d="M9.96501 16.1718H4.35101C4.24074 16.1718 4.15051 16.0856 4.15051 15.9804V10.4288C4.15051 10.3235 4.24074 10.2373 4.35101 10.2373H9.96501C10.0753 10.2373 10.1655 10.3235 10.1655 10.4288V15.9804C10.1655 16.0856 10.0753 16.1718 9.96501 16.1718ZM4.55151 15.7889H9.76451V10.6202H4.55151V15.7889Z" fill="#252D32"/>
<path d="M7.35858 15.9804C7.24831 15.9804 7.15808 15.8942 7.15808 15.789V10.6202C7.15808 10.5149 7.24831 10.4288 7.35858 10.4288C7.46886 10.4288 7.55908 10.5149 7.55908 10.6202V15.789C7.55908 15.8942 7.46886 15.9804 7.35858 15.9804Z" fill="#252D32"/>
<path d="M7.15807 13.3003H4.55157C4.4413 13.3003 4.35107 13.2141 4.35107 13.1089C4.35107 13.0036 4.4413 12.9174 4.55157 12.9174H7.15807C7.26835 12.9174 7.35857 13.0036 7.35857 13.1089C7.35857 13.2141 7.26835 13.3003 7.15807 13.3003Z" fill="#252D32"/>
<path d="M22.4964 20.0005H0.441375C0.27496 20.0005 0.140625 19.8722 0.140625 19.7133C0.140625 19.5544 0.27496 19.4262 0.441375 19.4262H22.4964C22.6628 19.4262 22.7971 19.5544 22.7971 19.7133C22.7971 19.8722 22.6628 20.0005 22.4964 20.0005Z" fill="#252D32"/>
<path d="M9.66427 5.83437C8.8342 5.83437 8.16052 5.19115 8.16052 4.39862C8.16052 3.60608 8.8342 2.96286 9.66427 2.96286C10.4943 2.96286 11.168 3.60608 11.168 4.39862C11.168 5.19115 10.4943 5.83437 9.66427 5.83437ZM9.66427 3.34573C9.05676 3.34573 8.56152 3.81857 8.56152 4.39862C8.56152 4.97866 9.05676 5.4515 9.66427 5.4515C10.2718 5.4515 10.767 4.97866 10.767 4.39862C10.767 3.81857 10.2718 3.34573 9.66427 3.34573Z" fill="#252D32"/>
<path d="M17.7845 20.0005C14.3579 20.0005 11.569 17.3377 11.569 14.066C11.569 10.7944 14.3579 8.13159 17.7845 8.13159C21.211 8.13159 24 10.7944 24 14.066C24 17.3377 21.211 20.0005 17.7845 20.0005ZM17.7845 8.70589C14.6887 8.70589 12.1705 11.1103 12.1705 14.066C12.1705 17.0218 14.6887 19.4262 17.7845 19.4262C20.8802 19.4262 23.3985 17.0218 23.3985 14.066C23.3985 11.1103 20.8802 8.70589 17.7845 8.70589Z" fill="#252D32"/>
</svg>
