<svg width="22" height="22" viewBox="0 0 22 22" fill="none" xmlns="http://www.w3.org/2000/svg">
<path d="M16.3417 19.0531C16.8941 17.6036 17.9455 16.4783 19.2821 15.8871C17.9099 15.2958 16.8763 14.1515 16.3238 12.683C15.7714 14.1324 14.72 15.2577 13.3834 15.8489C14.7556 16.4402 15.7892 17.5845 16.3417 19.0531Z" fill="#FFEB92"/>
<path d="M6.37971 10.852C6.57573 11.2716 6.75394 11.7103 6.89651 12.168C7.03907 11.7294 7.19946 11.3098 7.39549 10.9093C8.16178 9.3072 9.40923 8.25824 10.8705 7.68607C9.40923 7.13298 8.1796 6.08402 7.39549 4.48196C7.19946 4.06237 7.02125 3.62372 6.87869 3.16599C6.73612 3.60464 6.57573 4.02423 6.37971 4.42474C5.61341 6.0268 4.36596 7.07577 2.90466 7.64793C4.36596 8.20102 5.59559 9.24999 6.37971 10.852Z" fill="#FFBE57"/>
<path d="M19.7454 18.9195C19.3355 18.4809 18.7118 19.1675 19.1216 19.587L21.2423 21.8566C21.6522 22.2953 22.2759 21.6087 21.866 21.1891C21.1532 20.4262 20.4582 19.6824 19.7454 18.9195Z" fill="#282828"/>
<path d="M19.7453 12.8356C20.4581 12.0727 21.1531 11.3289 21.8659 10.566C22.2758 10.1273 21.6343 9.45979 21.2422 9.89845L19.1216 12.168C18.7117 12.6067 19.3532 13.2742 19.7453 12.8356Z" fill="#282828"/>
<path d="M10.8351 15.868C10.8351 16.116 10.9776 16.3448 11.2628 16.3448C14.0072 16.402 15.8605 18.6144 15.8784 21.5134C15.8784 22.1237 16.7694 22.1237 16.7694 21.5134C16.7872 18.6335 18.6762 16.4593 21.385 16.3448C21.6701 16.3448 21.8127 16.0969 21.8127 15.868C21.8127 15.6201 21.6701 15.3912 21.385 15.3912C18.6406 15.334 16.7872 13.1216 16.7694 10.2227C16.7694 9.61238 15.8784 9.61238 15.8784 10.2227C15.8605 13.1026 13.9715 15.2768 11.2628 15.3912C10.9776 15.3912 10.8351 15.6392 10.8351 15.868ZM16.3239 12.6639C16.8763 14.1325 17.9099 15.2768 19.2821 15.868C17.9277 16.4783 16.8941 17.6036 16.3417 19.034C15.7892 17.5654 14.7556 16.4211 13.3834 15.8299C14.7378 15.2196 15.7714 14.0943 16.3239 12.6639Z" fill="#282828"/>
<path d="M0.427698 8.14379C2.79786 8.18193 4.79378 9.30719 5.77392 11.6721C6.18379 12.6448 6.43328 13.7891 6.45111 14.8572C6.45111 15.4675 7.34214 15.4675 7.34214 14.8572C7.34214 13.7891 7.60945 12.6829 8.01933 11.7103C8.99947 9.3644 11.0132 8.22008 13.3656 8.12472C13.6507 8.12472 13.7932 7.87678 13.7932 7.64791C13.7932 7.39998 13.6507 7.17111 13.3656 7.17111C10.9954 7.13297 8.99947 5.98864 8.01933 3.64277C7.60945 2.67009 7.35996 1.52577 7.34214 0.457731C7.34214 -0.152577 6.45111 -0.152577 6.45111 0.457731C6.45111 1.52577 6.18379 2.63195 5.77392 3.60463C4.79378 5.9505 2.78003 7.09482 0.427698 7.19018C0.142566 7.17111 0 7.41905 0 7.66699C0 7.91492 0.142566 8.14379 0.427698 8.14379ZM6.37982 4.42473C6.57585 4.02421 6.73624 3.60463 6.8788 3.16597C7.02137 3.6237 7.18176 4.06236 7.3956 4.48194C8.1619 6.10307 9.39153 7.13297 10.8706 7.68606C9.40935 8.25822 8.17972 9.30719 7.3956 10.9092C7.19958 11.3098 7.03919 11.7293 6.89662 12.168C6.75406 11.7103 6.59367 11.2716 6.37982 10.852C5.61353 9.2309 4.3839 8.201 2.90478 7.64791C4.36608 7.07575 5.59571 6.02678 6.37982 4.42473Z" fill="#282828"/>
<path d="M5.47096 21.1701V19.7206H6.82534C7.3956 19.7206 7.3956 18.767 6.82534 18.767H5.47096V17.3175C5.47096 16.7072 4.57992 16.7072 4.57992 17.3175V18.767H3.22555C2.65529 18.767 2.65529 19.7206 3.22555 19.7206H4.57992V21.1701C4.57992 21.7804 5.47096 21.7804 5.47096 21.1701Z" fill="#282828"/>
<path d="M4.18725 13.1791C4.18725 12.7975 3.90223 12.4922 3.54596 12.4922C3.18968 12.4922 2.90466 12.7975 2.90466 13.1791C2.90466 13.5607 3.18968 13.866 3.54596 13.866C3.90223 13.866 4.18725 13.5607 4.18725 13.1791Z" fill="#282828"/>
<path d="M11.3162 21.8566C12.029 21.0938 12.724 20.3499 13.4369 19.5871C13.8467 19.1484 13.2052 18.4809 12.8131 18.9195C12.1003 19.6824 11.4053 20.4262 10.6925 21.1891C10.2826 21.6278 10.9241 22.2953 11.3162 21.8566Z" fill="#282828"/>
<path d="M12.706 3.73874C13.0602 3.73874 13.3473 3.4312 13.3473 3.05183C13.3473 2.67247 13.0602 2.36493 12.706 2.36493C12.3518 2.36493 12.0647 2.67247 12.0647 3.05183C12.0647 3.4312 12.3518 3.73874 12.706 3.73874Z" fill="#282828"/>
<path d="M18.4086 5.43617C18.7628 5.43617 19.0499 5.12863 19.0499 4.74927C19.0499 4.3699 18.7628 4.06236 18.4086 4.06236C18.0545 4.06236 17.7673 4.3699 17.7673 4.74927C17.7673 5.12863 18.0545 5.43617 18.4086 5.43617Z" fill="#282828"/>
<path d="M12.8131 12.8355C13.223 13.2742 13.8467 12.5876 13.4368 12.168C12.724 11.4051 12.029 10.6613 11.3162 9.89843C10.9063 9.45977 10.2826 10.1464 10.6924 10.566C11.4053 11.3288 12.1003 12.0727 12.8131 12.8355Z" fill="#282828"/>
</svg>
