<svg xmlns="http://www.w3.org/2000/svg" id="icon_detail13_birth_on" width="56" height="56" viewBox="0 0 56 56">
    <defs>
        <style>
            .cls-2,.cls-3{fill:none;stroke:#0bc7ec;stroke-linecap:round;stroke-linejoin:round;stroke-width:2.5px}.cls-3{fill-rule:evenodd}
        </style>
    </defs>
    <g id="그룹_257" transform="translate(2.323 1.082)">
        <g id="ic-actions-user" transform="translate(11.312 11.437)">
            <path id="패스_346" d="M21.63 7.053L6.556 38.742a24.535 24.535 0 0 0 30.377 0c-6.496-13.21-9.262-18.905-15.303-31.689z" class="cls-2" transform="translate(-6.556 -7.053)"/>
            <path id="선_335" d="M17.054 0L0 10.221" class="cls-2" transform="translate(3.715 13.659)"/>
            <path id="선_336" d="M20.539 0L0 11.351" class="cls-2" transform="translate(5.191 23.091)"/>
        </g>
        <g id="ic-actions-star" transform="translate(3.867 1.444)">
            <path id="패스_347" d="M20.557 5.471a9.963 9.963 0 0 0-3.9 7.966s-.155-5.729-7.3-9.993" class="cls-3" transform="translate(5.857 -3.444)"/>
            <path id="패스_348" d="M12 11.953s5.3 1.8 9.287-7.67" class="cls-3" transform="translate(10.518 -1.96)"/>
            <circle id="타원_98" cx="3.671" cy="3.671" r="3.671" class="cls-2" transform="translate(36.276 14.432)"/>
            <circle id="타원_99" cx="2.028" cy="2.028" r="2.028" class="cls-2" transform="translate(0 23.802)"/>
        </g>
    </g>
</svg>
