<svg xmlns="http://www.w3.org/2000/svg" id="icon_detail8_couple_on" width="56" height="56" viewBox="0 0 56 56">
    <defs>
        <style>
            .cls-2,.cls-4{fill:none;stroke:#0bc7ec;stroke-linecap:round;stroke-width:2.5px}.cls-2{stroke-linejoin:round}.cls-4{stroke-linejoin:bevel;fill-rule:evenodd}
        </style>
    </defs>
    <g id="그룹_253" transform="translate(1.981 2.756)">
        <path id="패스_335" d="M2.537 24.45l1.206-4.389C7.737 5.542 24.8 6.34 28.751 18.4" class="cls-2" transform="translate(0 9.15)"/>
        <circle id="타원_93" cx="7.64" cy="7.64" r="7.64" fill="none" stroke="#0bc7ec" stroke-linecap="round" stroke-linejoin="bevel" stroke-width="2.5px" transform="translate(8.648 2.994)"/>
        <path id="패스_336" d="M20.166 17.27a17.585 17.585 0 0 1 2.01 4.689l1.216 4.391" class="cls-2" transform="translate(26.109 21.143)"/>
        <path id="패스_337" d="M10.376 30.048l1.216-4.391c2.109-7.691 7.914-11.313 13.472-10.842" class="cls-2" transform="translate(11.61 17.446)"/>
        <path id="패스_338" d="M28.1 16.231a7.6 7.6 0 0 1-6.7 7.567 5.806 5.806 0 0 1-.943.074 7.642 7.642 0 0 1 0-15.283 7.359 7.359 0 0 1 1.042.074 7.611 7.611 0 0 1 6.601 7.568z" class="cls-4" transform="translate(15.268 8.288)"/>
        <path id="패스_339" d="M28.6 12.688v15.357a6.143 6.143 0 0 1-2.7 5.086h-.025a6.022 6.022 0 0 1-3.426 1.069 6.152 6.152 0 0 1-6.149-6.155V26.8a7.6 7.6 0 0 0 6.7-7.567c0-8.2-10.561-9.747-13.287-5.044 4.008-7 9.689-7.634 12.741-7.634a6.218 6.218 0 0 1 4.342 1.786 6.091 6.091 0 0 1 1.804 4.347z" class="cls-4" transform="translate(20.377 5.281)"/>
    </g>
</svg>
