<svg xmlns="http://www.w3.org/2000/svg" id="icon_detail4_freeparking_on" width="56" height="56" viewBox="0 0 56 56">
    <defs>
        <style>
            .cls-2{fill:none;stroke:#0bc7ec;stroke-linecap:round;stroke-linejoin:round;stroke-width:2.5px}.cls-3{fill:#0bc7ec}
        </style>
    </defs>
    <g id="그룹_264" transform="translate(-0.243 4.663)">
        <circle id="타원_100" cx="4.411" cy="4.411" r="4.411" class="cls-2" transform="translate(9.557 39.444)"/>
        <circle id="타원_101" cx="4.411" cy="4.411" r="4.411" class="cls-2" transform="translate(38.061 39.444)"/>
        <path id="선_345" d="M0 0L0 9.369" class="cls-2" transform="translate(16.433 22.186)"/>
        <path id="선_346" d="M0 0L0 9.522" class="cls-2" transform="translate(26.752 22.033)"/>
        <path id="패스_360" d="M8.971 32.461H2.177v-2.914l2.108-3.94s.884-15.7 8.93-15.7h15.977s8.534-.221 13.158 9.875c0 0 7.855-.753 10.587 5.159 3.64 7.881-1.11 7.521-1.11 7.521H47.3" class="cls-2" transform="translate(0 11.773)"/>
        <path id="선_347" d="M19.683 0L0 0" class="cls-2" transform="translate(18.378 44.235)"/>
        <path id="선_348" d="M0 0L38.663 0" class="cls-2" transform="translate(5.504 31.555)"/>
        <g id="그룹_265" transform="translate(2.806 -0.25)">
            <path id="패스_361" d="M4.193 2.409h8.855v2.328H6.754v2.475H12.3v2.325H6.754v4.5H4.193z" class="cls-3" transform="translate(0)"/>
            <path id="패스_362" d="M8.4 2.409h5.316a4.649 4.649 0 0 1 3.39 1.179 3.653 3.653 0 0 1 1 2.659v.034a3.609 3.609 0 0 1-2.491 3.6l2.841 4.155h-2.995l-2.491-3.719h-2.009v3.723H8.4zm5.153 5.648c1.244 0 1.957-.664 1.957-1.643V6.38c0-1.1-.762-1.662-2.009-1.662h-2.54v3.339z" class="cls-3" transform="translate(6.698)"/>
            <path id="패스_363" d="M13.037 2.409h8.772v2.278h-6.232v2.357h5.485V9.32h-5.485v2.444h6.314v2.276h-8.854z" class="cls-3" transform="translate(14.08)"/>
            <path id="패스_364" d="M17.333 2.409H26.1v2.278h-6.227v2.357h5.485V9.32h-5.485v2.444h6.314v2.276h-8.854z" class="cls-3" transform="translate(20.92)"/>
        </g>
    </g>
</svg>
