<svg width="32" height="32" viewBox="0 0 32 32" fill="none" xmlns="http://www.w3.org/2000/svg">
<path fill-rule="evenodd" clip-rule="evenodd" d="M4.66666 13.757C4.66666 7.62388 9.79183 2.66669 15.9913 2.66669C22.2081 2.66669 27.3333 7.62388 27.3333 13.757C27.3333 16.8476 26.2093 19.7169 24.3593 22.1488C22.3184 24.8314 19.8029 27.1686 16.9714 29.0033C16.3233 29.4272 15.7385 29.4592 15.0273 29.0033C12.1796 27.1686 9.66411 24.8314 7.64066 22.1488C5.7893 19.7169 4.66666 16.8476 4.66666 13.757ZM12.259 14.1024C12.259 16.157 13.9355 17.7729 15.9913 17.7729C18.0483 17.7729 19.741 16.157 19.741 14.1024C19.741 12.0638 18.0483 10.3692 15.9913 10.3692C13.9355 10.3692 12.259 12.0638 12.259 14.1024Z" fill="#5064FF"/>
<path d="M15.9913 17.7729C13.9355 17.7729 12.259 16.157 12.259 14.1024C12.259 12.0638 13.9355 10.3692 15.9913 10.3692C18.0483 10.3692 19.741 12.0638 19.741 14.1024C19.741 16.157 18.0483 17.7729 15.9913 17.7729Z" fill="white"/>
</svg>
