<svg width="24" height="24" viewBox="0 0 24 24" fill="none" xmlns="http://www.w3.org/2000/svg">
<path d="M11.2637 12.5663C11.8681 11.9501 11.8681 10.9546 11.2637 10.3384C10.6617 9.72216 9.68287 9.72216 9.07844 10.3384L5.84583 13.6342L8.03108 15.8621L11.2637 12.5663Z" fill="white" stroke="#282828"/>
<path d="M2.55452 18.9857L6.8247 14.6321L5.84586 13.6341L1.45332 18.1125C0.848892 18.7287 0.848892 19.7242 1.45332 20.3404C1.6809 20.5724 1.95987 20.7147 2.25108 20.772C1.97945 20.1882 2.07978 19.4672 2.55452 18.9857V18.9857Z" fill="white"/>
<path d="M3.63857 20.3404L8.03111 15.8621L6.82469 14.6321L2.55451 18.9857C2.07977 19.4697 1.97944 20.1882 2.25107 20.772C2.73804 20.8668 3.26172 20.7246 3.63857 20.3404V20.3404Z" fill="#31CBDB"/>
<path d="M5.84586 13.6341L1.45332 18.1125C0.848892 18.7287 0.848892 19.7242 1.45332 20.3404C2.05776 20.9567 3.03415 20.9567 3.63858 20.3404L8.03112 15.8621L5.84586 13.6341V13.6341Z" stroke="#282828"/>
<path d="M8.63312 3.06328C8.97082 2.71898 9.33299 2.4196 9.71719 2.16013C10.0989 1.90315 10.5027 1.68859 10.9187 1.51644C11.3347 1.3443 11.763 1.21456 12.1985 1.12973C12.6341 1.04491 13.0746 1 13.5175 1C13.9604 1 14.4009 1.04241 14.8365 1.12973C15.2721 1.21456 15.7003 1.3443 16.1163 1.51644C16.5323 1.68859 16.9337 1.90315 17.3179 2.16013C17.6996 2.4171 18.0642 2.71898 18.4019 3.06328C18.7396 3.40758 19.0333 3.77682 19.2878 4.16852C19.5398 4.55772 19.7503 4.96938 19.9191 5.39351C20.088 5.81765 20.2152 6.25425 20.2984 6.69834C20.3816 7.14244 20.4257 7.59152 20.4257 8.04309C20.4257 8.49467 20.3841 8.94375 20.2984 9.38784C20.2152 9.83193 20.088 10.2685 19.9191 10.6927C19.7503 11.1168 19.5398 11.526 19.2878 11.9177C19.0357 12.3069 18.7396 12.6786 18.4019 13.0229C18.0642 13.3672 17.7021 13.6666 17.3179 13.9261C16.9361 14.183 16.5323 14.3976 16.1163 14.5697C15.7003 14.7419 15.2721 14.8716 14.8365 14.9565C14.4009 15.0413 13.9604 15.0862 13.5175 15.0862C13.0746 15.0862 12.6341 15.0438 12.1985 14.9565C11.763 14.8716 11.3347 14.7419 10.9187 14.5697C10.5027 14.3976 10.1014 14.183 9.71719 13.9261C9.33544 13.6691 8.97082 13.3672 8.63312 13.0229C8.29542 12.6786 8.00177 12.3094 7.74727 11.9177C7.49522 11.526 7.28477 11.1168 7.11592 10.6927C6.94707 10.2685 6.81983 9.83193 6.73662 9.38784C6.65342 8.94375 6.60938 8.49467 6.60938 8.04309C6.60938 7.59152 6.65098 7.14244 6.73662 6.69834" fill="white"/>
<path d="M8.63312 3.06328C8.97082 2.71898 9.33299 2.4196 9.71719 2.16013C10.0989 1.90315 10.5027 1.68859 10.9187 1.51644C11.3347 1.3443 11.763 1.21456 12.1985 1.12973C12.6341 1.04491 13.0746 1 13.5175 1C13.9604 1 14.4009 1.04241 14.8365 1.12973C15.2721 1.21456 15.7003 1.3443 16.1163 1.51644C16.5323 1.68859 16.9337 1.90315 17.3179 2.16013C17.6996 2.4171 18.0642 2.71898 18.4019 3.06328C18.7396 3.40758 19.0333 3.77682 19.2878 4.16852C19.5398 4.55772 19.7503 4.96938 19.9191 5.39351C20.088 5.81765 20.2152 6.25425 20.2984 6.69834C20.3816 7.14244 20.4257 7.59152 20.4257 8.04309C20.4257 8.49467 20.3841 8.94375 20.2984 9.38784C20.2152 9.83193 20.088 10.2685 19.9191 10.6927C19.7503 11.1168 19.5398 11.526 19.2878 11.9177C19.0357 12.3069 18.7396 12.6786 18.4019 13.0229C18.0642 13.3672 17.7021 13.6666 17.3179 13.9261C16.9361 14.183 16.5323 14.3976 16.1163 14.5697C15.7003 14.7419 15.2721 14.8716 14.8365 14.9565C14.4009 15.0413 13.9604 15.0862 13.5175 15.0862C13.0746 15.0862 12.6341 15.0438 12.1985 14.9565C11.763 14.8716 11.3347 14.7419 10.9187 14.5697C10.5027 14.3976 10.1014 14.183 9.71719 13.9261C9.33544 13.6691 8.97082 13.3672 8.63312 13.0229C8.29542 12.6786 8.00177 12.3094 7.74727 11.9177C7.49522 11.526 7.28477 11.1168 7.11592 10.6927C6.94707 10.2685 6.81983 9.83193 6.73662 9.38784C6.65342 8.94375 6.60938 8.49467 6.60938 8.04309C6.60938 7.59152 6.65098 7.14244 6.73662 6.69834" stroke="#282828"/>
<path d="M7.11597 5.39103C7.28482 4.96689 7.49527 4.55773 7.74732 4.16603Z" fill="white"/>
<path d="M7.11597 5.39103C7.28482 4.96689 7.49527 4.55773 7.74732 4.16603" stroke="#282828"/>
<path d="M13.4758 4.38057C14.0068 3.83918 14.6308 3.44499 15.2916 3.1955C13.4881 2.5094 11.3787 2.9011 9.92753 4.38057C7.94538 6.40144 7.94538 9.67973 9.92753 11.7006C11.3787 13.1801 13.4881 13.5718 15.2916 12.8857C14.6284 12.6337 14.0068 12.242 13.4758 11.7006C11.4937 9.67973 11.4937 6.40144 13.4758 4.38057Z" fill="white"/>
<path d="M17.1074 4.38057C16.5763 3.83918 15.9523 3.44499 15.2916 3.1955C14.6285 3.44748 14.0069 3.83918 13.4759 4.38057C11.4937 6.40144 11.4937 9.67973 13.4759 11.7006C14.0069 12.242 14.6309 12.6362 15.2916 12.8857C15.9523 12.6337 16.5763 12.242 17.1074 11.7006C19.0895 9.67973 19.0895 6.40144 17.1074 4.38057Z" fill="#EA7878"/>
<path d="M17.1073 11.7006C15.1252 13.7215 11.9097 13.7215 9.92753 11.7006C7.94538 9.67976 7.94538 6.40146 9.92753 4.38059C11.9097 2.35973 15.1252 2.35973 17.1073 4.38059C19.0895 6.40146 19.0895 9.67976 17.1073 11.7006Z" stroke="#282828"/>
<path d="M13.5175 4.60014C14.3813 4.60014 15.2451 4.93695 15.9034 5.60808C16.5616 6.27921 16.892 7.15991 16.892 8.04061" stroke="#282828"/>
<path d="M19.8432 11.0644C19.8432 12.9057 18.3774 14.3976 16.5714 14.3976C14.7655 14.3976 13.3021 12.9057 13.3021 11.0644C13.3021 9.22319 14.7655 7.72874 16.5714 7.72874C18.3774 7.72874 19.8432 9.22069 19.8432 11.0644Z" fill="white" stroke="#282828"/>
<path d="M17.516 14.7918H13.356C11.5794 14.7918 10.1405 16.2588 10.1405 18.0701V23H14.3006V18.0701C14.3006 16.2588 15.7395 14.7918 17.516 14.7918Z" fill="white"/>
<path d="M19.7869 14.7918H17.516C15.7394 14.7918 14.3005 16.2588 14.3005 18.0701V23H23V18.0701C23 16.2588 21.5611 14.7918 19.7845 14.7918H19.7869Z" fill="#FFD073"/>
<path d="M19.787 14.7918H13.356C11.5794 14.7918 10.1405 16.2588 10.1405 18.0701V23H23V18.0701C23 16.2588 21.5611 14.7918 19.7845 14.7918H19.787Z" stroke="#282828"/>
<path d="M13.0502 18.382V23" stroke="#282828"/>
<path d="M20.0929 23V18.382" stroke="#282828"/>
<path d="M16.5715 16.3212V17.5686" stroke="#282828"/>
<path d="M16.5715 18.6913V19.9388" stroke="#282828"/>
<path d="M8.48877 21.6852V22.8079" stroke="#282828"/>
<path d="M6.40869 21.6852V22.8079" stroke="#282828"/>
<path d="M4.32861 21.6852V22.8079" stroke="#282828"/>
</svg>
