<svg width="24" height="23" viewBox="0 0 24 23" fill="none" xmlns="http://www.w3.org/2000/svg">
<path d="M20.1273 10.5629C20.1273 15.8674 15.8455 20.1674 10.5636 20.1674C5.28175 20.1674 1 15.8674 1 10.5629C1 5.25839 5.28175 0.958344 10.5636 0.958344C15.8455 0.958344 20.1273 5.25839 20.1273 10.5629Z" fill="#F8CE00" stroke="#282828" stroke-linecap="round" stroke-linejoin="round"/>
<path d="M11.8395 10.5629H9.28238C8.76878 10.5629 8.35791 10.1448 8.35791 9.62901V8.07621C8.35791 7.56042 8.77419 7.14236 9.28238 7.14236H11.8395C12.3531 7.14236 12.7694 7.56042 12.7694 8.07621" fill="#F8CE00"/>
<path d="M11.8395 10.5629H9.28238C8.76878 10.5629 8.35791 10.1448 8.35791 9.62901V8.07621C8.35791 7.56042 8.77419 7.14236 9.28238 7.14236H11.8395C12.3531 7.14236 12.7694 7.56042 12.7694 8.07621" stroke="#282828" stroke-linecap="round" stroke-linejoin="round"/>
<path d="M9.28238 10.5629H11.8395C12.3531 10.5629 12.7694 10.9809 12.7694 11.4967V13.0495C12.7694 13.5653 12.3531 13.9833 11.8395 13.9833H9.28238C8.76878 13.9833 8.35791 13.5653 8.35791 13.0495" fill="#F8CE00"/>
<path d="M9.28238 10.5629H11.8395C12.3531 10.5629 12.7694 10.9809 12.7694 11.4967V13.0495C12.7694 13.5653 12.3531 13.9833 11.8395 13.9833H9.28238C8.76878 13.9833 8.35791 13.5653 8.35791 13.0495" stroke="#282828" stroke-linecap="round" stroke-linejoin="round"/>
<path d="M10.5636 6.81118V4.82947" stroke="#282828" stroke-linecap="round" stroke-linejoin="round"/>
<path d="M10.5636 16.2963V14.3145" stroke="#282828" stroke-linecap="round" stroke-linejoin="round"/>
<path d="M21.4573 20.8732L21.1059 18.8264C21.1059 18.8264 22.4791 17.4636 22.5386 17.3984C23.2522 16.6981 23.117 16.014 22.2791 15.7696L20.0138 15.4384L19.0299 13.435C18.5758 12.6858 17.9162 12.6858 17.4567 13.435L16.4728 15.4384L14.2075 15.7696C13.3696 16.014 13.2344 16.7035 13.948 17.3984C14.0129 17.4582 15.3807 18.8264 15.3807 18.8264L15.0347 20.8732C14.8941 21.8994 15.5321 22.3337 16.4782 21.8342C16.5647 21.7908 18.2514 20.9221 18.2514 20.9221C18.2514 20.9221 19.9382 21.7908 20.0247 21.8342C20.9708 22.3337 21.6087 21.8994 21.4681 20.8732H21.4573Z" fill="#EE5750" stroke="#282828" stroke-linecap="round" stroke-linejoin="round"/>
</svg>
