<svg width="24" height="26" viewBox="0 0 24 26" fill="none" xmlns="http://www.w3.org/2000/svg">
<path d="M1.82011 25C1.60901 25 1.3979 24.9228 1.23958 24.7685C0.920141 24.46 0.920141 23.9625 1.23958 23.6566C2.08677 22.8452 2.55342 21.7652 2.55342 20.616V15.2904C2.55342 14.8568 2.92008 14.503 3.37562 14.503C3.83116 14.503 4.19782 14.8541 4.19782 15.2904V20.616C4.19782 22.1855 3.55895 23.6593 2.40065 24.7685C2.23954 24.9228 2.02844 25 1.82011 25Z" fill="#FFBE57" stroke="#282828" stroke-width="0.5" stroke-linecap="round" stroke-linejoin="round"/>
<path d="M3.42009 25C3.20898 25 2.99788 24.9229 2.83955 24.7686C2.52012 24.46 2.52012 23.9625 2.83955 23.6566C3.68675 22.8453 4.1534 21.7652 4.1534 20.6161V15.2904C4.1534 14.8568 4.52005 14.503 4.97559 14.503C5.43114 14.503 5.79779 14.8541 5.79779 15.2904V20.6161C5.79779 22.1856 5.15892 23.6593 4.00063 24.7686C3.83952 24.9229 3.62842 25 3.42009 25Z" fill="#FFBE57" stroke="#282828" stroke-width="0.5" stroke-linecap="round" stroke-linejoin="round"/>
<path d="M5.01994 25C4.80884 25 4.59773 24.9229 4.4394 24.7686C4.11997 24.46 4.11997 23.9625 4.4394 23.6566C5.2866 22.8453 5.75325 21.7652 5.75325 20.6161V15.2904C5.75325 14.8568 6.11991 14.503 6.57545 14.503C7.03099 14.503 7.39764 14.8541 7.39764 15.2904V20.6161C7.39764 22.1856 6.75878 23.6593 5.60048 24.7686C5.43937 24.9229 5.22827 25 5.01994 25Z" fill="#FFBE57" stroke="#282828" stroke-width="0.5" stroke-linecap="round" stroke-linejoin="round"/>
<path d="M6.62004 25C6.40894 25 6.19783 24.9229 6.0395 24.7686C5.72007 24.46 5.72007 23.9625 6.0395 23.6566C6.8867 22.8453 7.35335 21.7652 7.35335 20.6161V15.2904C7.35335 14.8568 7.72001 14.503 8.17555 14.503C8.63109 14.503 8.99774 14.8541 8.99774 15.2904V20.6161C8.99774 22.1856 8.35887 23.6593 7.20058 24.7686C7.03947 24.9229 6.82837 25 6.62004 25Z" fill="#FFBE57" stroke="#282828" stroke-width="0.5" stroke-linecap="round" stroke-linejoin="round"/>
<path d="M8.21989 25C8.00879 25 7.79768 24.9229 7.63936 24.7686C7.31992 24.46 7.31992 23.9625 7.63936 23.6566C8.48655 22.8453 8.9532 21.7652 8.9532 20.6161V15.2904C8.9532 14.8568 9.31986 14.503 9.7754 14.503C10.2309 14.503 10.5976 14.8541 10.5976 15.2904V20.6161C10.5976 22.1856 9.95873 23.6593 8.80043 24.7686C8.63932 24.9229 8.42822 25 8.21989 25Z" fill="#FFBE57" stroke="#282828" stroke-width="0.5" stroke-linecap="round" stroke-linejoin="round"/>
<path d="M9.81975 25C9.60864 25 9.39754 24.9229 9.23921 24.7686C8.91978 24.46 8.91978 23.9625 9.23921 23.6566C10.0864 22.8453 10.5531 21.7652 10.5531 20.6161V15.2904C10.5531 14.8568 10.9197 14.503 11.3753 14.503C11.8308 14.503 12.1974 14.8541 12.1974 15.2904V20.6161C12.1974 22.1856 11.5586 23.6593 10.4003 24.7686C10.2392 24.9229 10.0281 25 9.81975 25Z" fill="#FFBE57" stroke="#282828" stroke-width="0.5" stroke-linecap="round" stroke-linejoin="round"/>
<path d="M11.4197 25C11.2086 25 10.9975 24.9229 10.8392 24.7686C10.5198 24.46 10.5198 23.9625 10.8392 23.6566C11.6864 22.8453 12.153 21.7652 12.153 20.6161V15.2904C12.153 14.8568 12.5197 14.503 12.9752 14.503C13.4308 14.503 13.7974 14.8541 13.7974 15.2904V20.6161C13.7974 22.1856 13.1586 23.6593 12.0003 24.7686C11.8392 24.9229 11.628 25 11.4197 25Z" fill="#FFBE57" stroke="#282828" stroke-width="0.5" stroke-linecap="round" stroke-linejoin="round"/>
<path d="M13.0198 25C12.8087 25 12.5976 24.9229 12.4393 24.7686C12.1198 24.46 12.1198 23.9625 12.4393 23.6566C13.2865 22.8453 13.7531 21.7652 13.7531 20.6161V15.2904C13.7531 14.8568 14.1198 14.503 14.5753 14.503C15.0309 14.503 15.3975 14.8541 15.3975 15.2904V20.6161C15.3975 22.1856 14.7587 23.6593 13.6004 24.7686C13.4393 24.9229 13.2281 25 13.0198 25Z" fill="#FFBE57" stroke="#282828" stroke-width="0.5" stroke-linecap="round" stroke-linejoin="round"/>
<path d="M14.6197 25C14.4086 25 14.1975 24.9229 14.0391 24.7686C13.7197 24.46 13.7197 23.9625 14.0391 23.6566C14.8863 22.8453 15.353 21.7652 15.353 20.6161V15.2904C15.353 14.8568 15.7196 14.503 16.1752 14.503C16.6307 14.503 16.9974 14.8541 16.9974 15.2904V20.6161C16.9974 22.1856 16.3585 23.6593 15.2002 24.7686C15.0391 24.9229 14.828 25 14.6197 25Z" fill="#FFBE57" stroke="#282828" stroke-width="0.5" stroke-linecap="round" stroke-linejoin="round"/>
<path d="M16.2196 25C16.0085 25 15.7974 24.9229 15.6391 24.7686C15.3197 24.46 15.3197 23.9625 15.6391 23.6566C16.4863 22.8453 16.953 21.7652 16.953 20.6161V15.2904C16.953 14.8568 17.3196 14.503 17.7752 14.503C18.2307 14.503 18.5974 14.8541 18.5974 15.2904V20.6161C18.5974 22.1856 17.9585 23.6593 16.8002 24.7686C16.6391 24.9229 16.428 25 16.2196 25Z" fill="#FFBE57" stroke="#282828" stroke-width="0.5" stroke-linecap="round" stroke-linejoin="round"/>
<path d="M17.8168 25C17.6057 25 17.3946 24.9229 17.2363 24.7686C16.9168 24.46 16.9168 23.9625 17.2363 23.6566C18.0835 22.8453 18.5501 21.7652 18.5501 20.6161V15.2904C18.5501 14.8568 18.9168 14.503 19.3723 14.503C19.8279 14.503 20.1945 14.8541 20.1945 15.2904V20.6161C20.1945 22.1856 19.5557 23.6593 18.3974 24.7686C18.2362 24.9229 18.0251 25 17.8168 25Z" fill="#FFBE57" stroke="#282828" stroke-width="0.5" stroke-linecap="round" stroke-linejoin="round"/>
<path d="M3.55619 12.0078H19.2918C20.1834 12.0078 20.9084 12.7021 20.9084 13.556V16.3917H1.93958V13.556C1.93958 12.7021 2.66455 12.0078 3.55619 12.0078Z" fill="#D9E7F8" stroke="#282828" stroke-width="0.5" stroke-linecap="round" stroke-linejoin="round"/>
<path d="M8.72536 10.5154H14.1224C14.4085 10.5154 14.6418 10.7388 14.6418 11.0128V12.0104H8.20593V11.0128C8.20593 10.7388 8.43926 10.5154 8.72536 10.5154Z" fill="#879CD8" stroke="#282828" stroke-width="0.5" stroke-linecap="round" stroke-linejoin="round"/>
<path d="M12.3531 1V10.5154H10.4949V1" fill="#D9E7F8"/>
<path d="M12.3531 1V10.5154H10.4949V1" stroke="#282828" stroke-width="0.5" stroke-linecap="round" stroke-linejoin="round"/>
<g style="mix-blend-mode:darken">
<path d="M12.3502 1H11.4225V10.5154H12.3502V1Z" fill="#AAC7E2"/>
</g>
<g style="mix-blend-mode:darken">
<path d="M20.9056 13.556V16.389H19.3223V13.556C19.3223 12.7021 18.6001 12.0078 17.7057 12.0078H19.289C20.1834 12.0078 20.9056 12.7021 20.9056 13.556Z" fill="#AAC7E2"/>
</g>
<path d="M4.19777 8.10791C4.53665 9.27572 5.4894 10.1908 6.71158 10.5154C5.49217 10.8399 4.53665 11.7523 4.19777 12.9228C3.85889 11.755 2.90614 10.8399 1.68396 10.5154C2.90337 10.1908 3.85889 9.27838 4.19777 8.10791Z" fill="white" stroke="#282828" stroke-width="0.5" stroke-linecap="round" stroke-linejoin="round"/>
<path d="M21.2529 17.8867C21.489 18.6981 22.1501 19.3338 23.0001 19.56C22.1529 19.7861 21.489 20.4192 21.2529 21.2332C21.0168 20.4219 20.3557 19.7861 19.5057 19.56C20.3529 19.3338 21.0168 18.7007 21.2529 17.8867Z" fill="white" stroke="#282828" stroke-width="0.5" stroke-linecap="round" stroke-linejoin="round"/>
</svg>
