<svg width="18" height="24" viewBox="0 0 18 24" fill="none" xmlns="http://www.w3.org/2000/svg">
<path d="M17 18.3624C17 14.5225 13.644 11.406 9.49699 11.406H8.49766C4.35605 11.406 1 14.5225 1 18.3624V23H17V18.3624Z" fill="#6ABBEE" stroke="#282828" stroke-linecap="round" stroke-linejoin="round"/>
<path d="M15.2738 7.41291C15.2738 10.9526 12.4629 13.8258 8.99995 13.8258C5.53703 13.8258 2.72607 10.958 2.72607 7.41291C2.72607 3.86778 5.53703 1 8.99995 1C12.4629 1 15.2738 3.87325 15.2738 7.41291Z" fill="#FFE1DF" stroke="#282828" stroke-linecap="round" stroke-linejoin="round"/>
<path d="M6.38684 6.5553V7.39105" stroke="#282828" stroke-linecap="round" stroke-linejoin="round"/>
<path d="M11.6132 6.5553V7.39105" stroke="#282828" stroke-linecap="round" stroke-linejoin="round"/>
<path d="M10.9664 9.84918C10.4641 10.2698 9.76937 10.5265 8.99983 10.5265C8.23563 10.5265 7.54091 10.2698 7.03857 9.84918" fill="#FFE1DF"/>
<path d="M10.9664 9.84918C10.4641 10.2698 9.76937 10.5265 8.99983 10.5265C8.23563 10.5265 7.54091 10.2698 7.03857 9.84918" stroke="#282828" stroke-linecap="round" stroke-linejoin="round"/>
</svg>
