<svg xmlns="http://www.w3.org/2000/svg" width="42" height="42" viewBox="0 0 42 42" fill="none"><g filter="url(#filter0_ii_1_262)"><rect width="42" height="42" rx="6" fill="url(#paint0_linear_1_262)"/></g><path fill-rule="evenodd" clip-rule="evenodd" d="M28.1143 9.0001C28.1143 9.37881 27.8073 9.68581 27.4286 9.68581C27.0499 9.68581 26.7429 9.37881 26.7429 9.0001C26.7429 8.62139 27.0499 8.31439 27.4286 8.31439C27.8073 8.31439 28.1143 8.62139 28.1143 9.0001ZM28.7143 9.0001C28.7143 9.71018 28.1387 10.2858 27.4286 10.2858C26.7185 10.2858 26.1429 9.71018 26.1429 9.0001C26.1429 8.29002 26.7185 7.71439 27.4286 7.71439C28.1387 7.71439 28.7143 8.29002 28.7143 9.0001ZM30.8572 12.6856C31.4726 12.6856 31.9715 12.1868 31.9715 11.5714C31.9715 10.956 31.4726 10.4571 30.8572 10.4571C30.2418 10.4571 29.7429 10.956 29.7429 11.5714C29.7429 12.1868 30.2418 12.6856 30.8572 12.6856ZM30.8572 13.2856C31.804 13.2856 32.5715 12.5181 32.5715 11.5714C32.5715 10.6246 31.804 9.85707 30.8572 9.85707C29.9104 9.85707 29.1429 10.6246 29.1429 11.5714C29.1429 12.5181 29.9104 13.2856 30.8572 13.2856ZM12.4906 13.8148H16.5386L20.913 24.5006H21.0871L25.4616 13.8148H29.5095V29.5715H26.3321V19.2556H26.2015L22.0882 29.5062H19.9119L15.7986 19.2121H15.668V29.5715H12.4906V13.8148Z" fill="white"/><defs><filter id="filter0_ii_1_262" x="-4" y="0" width="56" height="52" filterUnits="userSpaceOnUse" color-interpolation-filters="sRGB"><feFlood flood-opacity="0" result="BackgroundImageFix"/><feBlend mode="normal" in="SourceGraphic" in2="BackgroundImageFix" result="shape"/><feColorMatrix in="SourceAlpha" type="matrix" values="0 0 0 0 0 0 0 0 0 0 0 0 0 0 0 0 0 0 127 0" result="hardAlpha"/><feOffset dx="10" dy="10"/><feGaussianBlur stdDeviation="5"/><feComposite in2="hardAlpha" operator="arithmetic" k2="-1" k3="1"/><feColorMatrix type="matrix" values="0 0 0 0 1 0 0 0 0 1 0 0 0 0 1 0 0 0 0.27 0"/><feBlend mode="normal" in2="shape" result="effect1_innerShadow_1_262"/><feColorMatrix in="SourceAlpha" type="matrix" values="0 0 0 0 0 0 0 0 0 0 0 0 0 0 0 0 0 0 127 0" result="hardAlpha"/><feOffset dx="-4" dy="2"/><feGaussianBlur stdDeviation="5"/><feComposite in2="hardAlpha" operator="arithmetic" k2="-1" k3="1"/><feColorMatrix type="matrix" values="0 0 0 0 0 0 0 0 0 0.552941 0 0 0 0 0.662745 0 0 0 0.25 0"/><feBlend mode="normal" in2="effect1_innerShadow_1_262" result="effect2_innerShadow_1_262"/></filter><linearGradient id="paint0_linear_1_262" x1="21" y1="0" x2="21" y2="42" gradientUnits="userSpaceOnUse"><stop stop-color="#0BC7EC"/><stop offset="1" stop-color="#42C0EC"/></linearGradient></defs></svg>