<svg id="logo" xmlns="http://www.w3.org/2000/svg" width="111" height="58">
    <defs>
        <style>
            .cls-2{fill:#0bc7ec}
        </style>
    </defs>
    <path id="패스_1" data-name="패스 1" class="cls-2" d="M329.85 281.965h-10.856v33.156h6.638V288.6h4.218z" transform="translate(-291.164 -273.436)"/>
    <path id="패스_2" data-name="패스 2" class="cls-2" d="m490.826 300.9-12.849-12.836v-6.1h-6.638v6.41L458.8 300.9l4.694 4.689 11.317-11.305 11.317 11.305z" transform="translate(-382.249 -273.436)"/>
    <path id="패스_3" data-name="패스 3" class="cls-2" d="M430.322 289.88h-6.94v-7.915h-6.638v22.81h6.638v-8.263h6.94z" transform="translate(-354.847 -273.436)"/>
    <path id="패스_4" data-name="패스 4" class="cls-2" d="M367.083 281.965h-9.128v6.635h9.128v4.6h-9.1v6.631h9.1v4.948h6.638v-22.81z" transform="translate(-316.547 -273.436)"/>
    <path id="패스_5" data-name="패스 5" class="cls-2" d="M258.393 281.965h-14.355v33.156h20.993v-33.156zm0 26.525h-7.717V288.6h7.717z" transform="translate(-242.33 -273.436)"/>
    <path id="패스_6" data-name="패스 6" class="cls-2" d="M393.876 356.708a8.991 8.991 0 1 0 8.24 8.232 9 9 0 0 0-8.24-8.232zm-.73 11.32a2.359 2.359 0 1 1 2.361-2.359 2.36 2.36 0 0 1-2.362 2.359z" transform="translate(-333.61 -322.139)"/>
    <path id="패스_7" data-name="패스 7" class="cls-2" d="M483.621 357.187c0 .105 0 .212-.01.319a3.839 3.839 0 0 1-6.428 2.5 3.8 3.8 0 0 1-1.235-2.819h-6.273c0 .105 0 .212-.01.319a3.839 3.839 0 0 1-6.428 2.5 3.8 3.8 0 0 1-1.237-2.819h-6.273a10.1 10.1 0 0 0 10.128 10.1q.4 0 .794-.031a10.069 10.069 0 0 0 6.149-2.77c.042.04.082.082.125.121a10.159 10.159 0 0 0 6.878 2.68c.264 0 .529-.01.794-.031a10.166 10.166 0 0 0 9.27-9.256c.02-.251.029-.517.029-.811z" transform="translate(-380.246 -322.47)"/>
</svg>
