<svg width="131" height="142" viewBox="0 0 131 142" fill="none" xmlns="http://www.w3.org/2000/svg">
<path d="M54.9246 139.816L3.76745 110.14C-1.80559 106.912 -1.10202 101.267 5.32272 97.5381L53.3601 69.6754C59.7941 65.9461 69.5145 65.5369 75.0876 68.7733L126.245 98.4495C131.818 101.677 131.114 107.322 124.689 111.051L76.6521 138.914C70.2181 142.643 60.4977 143.052 54.9246 139.816Z" fill="#A5C683"/>
<path d="M20.5791 90.0237L19.3293 89.2983V91.3722C19.3293 91.7535 19.8848 92.3766 20.5791 92.3766C21.2734 92.3766 21.8289 91.7535 21.8289 91.3722V89.2983L20.5791 90.0237Z" fill="#C69C6C"/>
<path d="M20.5791 87.8662L19.3293 87.1407V89.2983L20.5791 90.0237V87.8662Z" fill="#A67C52"/>
<path d="M20.5792 90.0237L21.8382 89.2983V87.1407L20.5792 87.8662V90.0237Z" fill="#A67C52"/>
<path d="M15.9226 84.2578L14.2562 85.4482L20.5791 89.1124V86.9641L15.9226 84.2578Z" fill="#429664"/>
<path d="M20.5792 89.1124L26.9113 85.4482L25.245 84.2578L20.5792 86.9641V89.1124Z" fill="#347F53"/>
<path d="M15.9226 80.9749L14.2562 82.1647L15.1264 82.6667L16.7928 81.4768L15.9226 80.9749Z" fill="#429664"/>
<path d="M26.0318 82.6667L26.9113 82.1647L25.2449 80.9749L24.3747 81.4768L26.0318 82.6667Z" fill="#347F53"/>
<path d="M20.5791 74.3533L14.2562 78.8731L15.1264 79.3846L20.5791 75.4879V74.3533Z" fill="#429664"/>
<path d="M26.0319 79.3846L26.9113 78.8731L20.5792 74.3533V75.4879L26.0319 79.3846Z" fill="#347F53"/>
<path d="M20.5792 85.8294L16.7928 83.6346L15.9226 84.2577L20.5792 86.964V85.8294Z" fill="#347F53"/>
<path d="M18.4591 82.4439L16.7928 81.4772L15.1264 82.667L16.7928 83.6338L18.4591 82.4439Z" fill="#429664"/>
<path d="M18.4591 82.4442L16.7928 83.6346L20.5791 85.8294V83.6811L18.4591 82.4442Z" fill="#429664"/>
<path d="M20.5792 85.8294V86.964L25.245 84.2577L24.3748 83.6346L20.5792 85.8294Z" fill="#235B39"/>
<path d="M22.7083 82.4439L24.3747 83.6338L26.0318 82.667L24.3747 81.4772L22.7083 82.4439Z" fill="#347F53"/>
<path d="M20.5792 85.8294L24.3748 83.6346L22.7084 82.4442L20.5792 83.6811V85.8294Z" fill="#347F53"/>
<path d="M20.5791 77.6362V75.4879L15.1264 79.3846L16.7928 80.3518L20.5791 77.6362Z" fill="#429664"/>
<path d="M20.5791 77.6362L16.7928 80.3518L17.6723 80.854L20.5791 78.7708V77.6362Z" fill="#429664"/>
<path d="M19.3294 81.8212L17.6723 80.854L16.7928 80.3518L15.9226 80.9749L16.7928 81.4771L18.4592 82.4443L20.5792 83.6812V82.5466L19.3294 81.8212Z" fill="#347F53"/>
<path d="M20.5791 80.9283V78.7708L17.6722 80.854L19.3293 81.8211L20.5791 80.9283Z" fill="#429664"/>
<path d="M20.5791 82.546V80.9285L19.3293 81.8209L20.5791 82.546Z" fill="#429664"/>
<path d="M23.4952 80.8538L24.3747 81.4766L25.2449 80.9746L24.3747 80.3518L23.4952 80.8538Z" fill="#235B39"/>
<path d="M20.5792 77.6362L24.3748 80.3518L26.0319 79.3846L20.5792 75.4879V77.6362Z" fill="#347F53"/>
<path d="M20.5792 78.7708L23.4953 80.854L24.3748 80.3518L20.5792 77.6362V78.7708Z" fill="#347F53"/>
<path d="M22.7083 82.4435L24.3747 81.4767L23.4952 80.8539L21.8381 81.8207L22.7083 82.4435Z" fill="#235B39"/>
<path d="M20.5792 82.5462V83.6803L22.7084 82.444L21.8382 81.8212L20.5792 82.5462Z" fill="#235B39"/>
<path d="M20.5792 80.9283L21.8382 81.8211L23.4953 80.854L20.5792 78.7708V80.9283Z" fill="#347F53"/>
<path d="M21.8382 81.8209L20.5792 80.9285V82.546L21.8382 81.8209Z" fill="#347F53"/>
<path d="M78.4665 35.7026L70.6717 31.1829V19.8462L78.4665 24.366V35.7026Z" fill="#F7F7F7"/>
<path d="M71.6807 30.597V21.5946L77.4667 24.9519V33.9543L71.6807 30.597Z" fill="#99BBD1"/>
<path d="M89.6312 42.1753L81.8364 37.6555V26.3188L89.6312 30.8386V42.1753Z" fill="#F7F7F7"/>
<path d="M82.8361 37.0696V28.0673L88.6221 31.4246V40.4269L82.8361 37.0696Z" fill="#99BBD1"/>
<path d="M100.786 48.6481L92.9916 44.1283V32.7916L100.786 37.3114V48.6481Z" fill="#F7F7F7"/>
<path d="M93.9915 43.5425V34.5402L99.7774 37.8975V46.8998L93.9915 43.5425Z" fill="#99BBD1"/>
<path d="M78.4665 52.2658L70.6717 47.746V36.4093L78.4665 40.9291V52.2658Z" fill="#F7F7F7"/>
<path d="M71.6807 47.1602V38.1578L77.4667 41.5151V50.5175L71.6807 47.1602Z" fill="#99BBD1"/>
<path d="M89.6312 58.7387L81.8364 54.2189V42.8822L89.6312 47.402V58.7387Z" fill="#F7F7F7"/>
<path d="M82.8361 53.633V44.6306L88.6221 47.9879V56.9903L82.8361 53.633Z" fill="#99BBD1"/>
<path d="M100.786 65.2114L92.9916 60.6917V49.355L100.786 53.8748V65.2114Z" fill="#F7F7F7"/>
<path d="M93.9915 60.1058V51.1034L99.7774 54.4607V63.4631L93.9915 60.1058Z" fill="#99BBD1"/>
<path d="M78.4665 68.8291L70.6717 64.3093V52.9727L78.4665 57.4924V68.8291Z" fill="#F7F7F7"/>
<path d="M71.6807 63.7234V54.7211L77.4667 58.0784V67.0807L71.6807 63.7234Z" fill="#99BBD1"/>
<path d="M89.6312 75.3019L81.8364 70.7821V59.4454L89.6312 63.9652V75.3019Z" fill="#F7F7F7"/>
<path d="M82.8361 70.1962V61.1938L88.6221 64.5511V73.5535L82.8361 70.1962Z" fill="#99BBD1"/>
<path d="M100.786 81.7747L92.9916 77.2549V65.9182L100.786 70.438V81.7747Z" fill="#F7F7F7"/>
<path d="M93.9915 76.669V67.6666L99.7774 71.0239V80.0263L93.9915 76.669Z" fill="#99BBD1"/>
<path d="M78.4665 85.3923L70.6717 80.8726V69.5359L78.4665 74.0557V85.3923Z" fill="#F7F7F7"/>
<path d="M71.6807 80.2867V71.2843L77.4667 74.6416V83.644L71.6807 80.2867Z" fill="#99BBD1"/>
<path d="M89.6312 91.8651L81.8364 87.3453V76.0087L89.6312 80.5284V91.8651Z" fill="#F7F7F7"/>
<path d="M82.8361 86.7595V77.7571L88.6221 81.1144V90.1167L82.8361 86.7595Z" fill="#99BBD1"/>
<path d="M100.786 98.3379L92.9916 93.8181V82.4814L100.786 87.0012V98.3379Z" fill="#F7F7F7"/>
<path d="M93.9915 93.2324V84.23L99.7774 87.5873V96.5896L93.9915 93.2324Z" fill="#99BBD1"/>
<path d="M16.9224 32.894L64.821 5.12427L112.71 32.894L64.821 60.673L16.9224 32.894Z" fill="#EAEAEA"/>
<path d="M16.9224 27.7697L64.821 0L112.71 27.7697L64.821 55.5487L16.9224 27.7697Z" fill="#F7F7F7"/>
<path d="M64.8209 57.1484L23.0046 32.894V33.9728L64.8209 58.2272V57.1484Z" fill="#E1E1E1"/>
<path d="M23.0046 111.014L64.8209 135.268V63.3421L23.0046 39.097V111.014Z" fill="#E1E1E1"/>
<path d="M106.637 33.9728V32.894L64.821 57.1484V58.2272L106.637 33.9728Z" fill="#BEC3C7"/>
<path d="M64.821 63.3421V135.268L106.637 111.014V39.097L64.821 63.3421Z" fill="#BEC3C7"/>
<path d="M64.821 58.2272V63.3422L106.637 39.0972V33.9729L64.821 58.2272Z" fill="#ABAFB2"/>
<path d="M23.0046 33.9729V39.0972L64.8209 63.3422V58.2272L23.0046 33.9729Z" fill="#D3D3D3"/>
<path d="M64.821 55.5487V60.673L112.71 32.8939V27.7697L64.821 55.5487Z" fill="#BEC3C7"/>
<path d="M16.9224 27.7697V32.8939L64.821 60.673V55.5487L16.9224 27.7697Z" fill="#E1E1E1"/>
<path d="M36.6503 59.9569L28.8554 55.4371V44.1005L36.6503 48.6203V59.9569Z" fill="#F7F7F7"/>
<path d="M29.8644 54.8513V45.8489L35.6504 49.2062V58.2085L29.8644 54.8513Z" fill="#99BBD1"/>
<path d="M47.8056 66.4297L40.0107 61.9006V50.564L47.8056 55.0931V66.4297Z" fill="#F7F7F7"/>
<path d="M41.0198 61.324V52.3217L46.8057 55.6696V64.672L41.0198 61.324Z" fill="#99BBD1"/>
<path d="M58.9702 72.9025L51.1661 68.3734V57.0367L58.9702 61.5658V72.9025Z" fill="#F7F7F7"/>
<path d="M52.1751 67.7968V58.7944L57.9611 62.1424V71.1448L52.1751 67.7968Z" fill="#99BBD1"/>
<path d="M36.6503 76.5201L28.8554 72.0004V60.6637L36.6503 65.1835V76.5201Z" fill="#F7F7F7"/>
<path d="M29.8644 71.4145V62.4121L35.6504 65.7694V74.7718L29.8644 71.4145Z" fill="#99BBD1"/>
<path d="M47.8056 82.9929L40.0107 78.4638V67.1365L47.8056 71.6563V82.9929Z" fill="#F7F7F7"/>
<path d="M41.0198 77.8874V68.885L46.8057 72.2423V81.2447L41.0198 77.8874Z" fill="#99BBD1"/>
<path d="M58.9702 89.4656L51.1661 84.9365V73.5999L58.9702 78.1289V89.4656Z" fill="#F7F7F7"/>
<path d="M52.1751 84.36V75.3577L57.9611 78.7057V87.708L52.1751 84.36Z" fill="#99BBD1"/>
<path d="M36.6503 93.0834L28.8554 88.5636V77.2269L36.6503 81.7467V93.0834Z" fill="#F7F7F7"/>
<path d="M29.8644 87.9778V78.9755L35.6504 82.3328V91.3351L29.8644 87.9778Z" fill="#99BBD1"/>
<path d="M47.8056 99.5563L40.0107 95.0365V83.6998L47.8056 88.2196V99.5563Z" fill="#F7F7F7"/>
<path d="M41.0198 94.4506V85.4482L46.8057 88.8055V97.8079L41.0198 94.4506Z" fill="#99BBD1"/>
<path d="M58.9702 106.029L51.1661 101.5V90.1632L58.9702 94.6923V106.029Z" fill="#F7F7F7"/>
<path d="M52.1751 100.923V91.9209L57.9611 95.2689V104.271L52.1751 100.923Z" fill="#99BBD1"/>
<path d="M36.6503 109.647L28.8554 105.127V93.7903L36.6503 98.3101V109.647Z" fill="#F7F7F7"/>
<path d="M29.8644 104.541V95.5387L35.6504 98.896V107.898L29.8644 104.541Z" fill="#99BBD1"/>
<path d="M47.8056 116.119L40.0107 111.6V100.263L47.8056 104.783V116.119Z" fill="#F7F7F7"/>
<path d="M41.0198 111.014V102.011L46.8057 105.369V114.371L41.0198 111.014Z" fill="#99BBD1"/>
<path d="M58.9702 122.592L51.1661 118.063V106.726L58.9702 111.256V122.592Z" fill="#F7F7F7"/>
<path d="M52.1751 117.487V108.484L57.9611 111.832V120.834L52.1751 117.487Z" fill="#99BBD1"/>
<path d="M78.4665 68.3734L70.6717 72.9025V61.5658L78.4665 57.0367V68.3734Z" fill="#E1E1E1"/>
<path d="M71.6808 71.1448V62.1424L77.4668 58.7944V67.7968L71.6808 71.1448Z" fill="#6896AF"/>
<path d="M89.6312 61.9006L81.8364 66.4297V55.0931L89.6312 50.564V61.9006Z" fill="#E1E1E1"/>
<path d="M82.8361 64.672V55.6696L88.6221 52.3217V61.324L82.8361 64.672Z" fill="#6896AF"/>
<path d="M100.786 55.4371L92.9916 59.9569V48.6203L100.786 44.1005V55.4371Z" fill="#E1E1E1"/>
<path d="M93.9915 58.2085V49.2062L99.7775 45.8489V54.8513L93.9915 58.2085Z" fill="#6896AF"/>
<path d="M78.4665 84.9368L70.6717 89.4659V78.1292L78.4665 73.6001V84.9368Z" fill="#E1E1E1"/>
<path d="M71.6808 87.708V78.7057L77.4668 75.3577V84.36L71.6808 87.708Z" fill="#6896AF"/>
<path d="M89.6312 78.4638L81.8364 82.9929V71.6563L89.6312 67.1365V78.4638Z" fill="#E1E1E1"/>
<path d="M82.8361 81.2353V72.2329L88.6221 68.8849V77.8873L82.8361 81.2353Z" fill="#6896AF"/>
<path d="M100.786 72.0004L92.9916 76.5201V65.1835L100.786 60.6637V72.0004Z" fill="#E1E1E1"/>
<path d="M93.9915 74.7718V65.7694L99.7775 62.4121V71.4145L93.9915 74.7718Z" fill="#6896AF"/>
<path d="M78.4665 101.5L70.6717 106.029V94.6923L78.4665 90.1632V101.5Z" fill="#E1E1E1"/>
<path d="M71.6808 104.271V95.2689L77.4668 91.9209V100.923L71.6808 104.271Z" fill="#6896AF"/>
<path d="M89.6312 95.0365L81.8364 99.5563V88.2196L89.6312 83.6998V95.0365Z" fill="#E1E1E1"/>
<path d="M82.8361 97.8078V88.8054L88.6221 85.4481V94.4505L82.8361 97.8078Z" fill="#6896AF"/>
<path d="M100.786 88.5637L92.9916 93.0835V81.7468L100.786 77.2271V88.5637Z" fill="#E1E1E1"/>
<path d="M93.9915 91.3351V82.3328L99.7775 78.9755V87.9778L93.9915 91.3351Z" fill="#6896AF"/>
<path d="M78.4665 118.063L70.6717 122.592V111.256L78.4665 106.726V118.063Z" fill="#E1E1E1"/>
<path d="M71.6808 120.834V111.832L77.4668 108.484V117.487L71.6808 120.834Z" fill="#6896AF"/>
<path d="M89.6312 111.6L81.8364 116.12V104.783L89.6312 100.263V111.6Z" fill="#E1E1E1"/>
<path d="M82.8361 114.371V105.369L88.6221 102.011V111.014L82.8361 114.371Z" fill="#6896AF"/>
<path d="M100.786 105.127L92.9916 109.647V98.3101L100.786 93.7903V105.127Z" fill="#E1E1E1"/>
<path d="M93.9915 107.898V98.8959L99.7775 95.5386V104.541L93.9915 107.898Z" fill="#6896AF"/>
<path d="M29.4664 29.9273L64.8209 50.4245L100.175 29.9273L64.8209 9.43018L29.4664 29.9273Z" fill="#EAEAEA"/>
<path d="M103.879 27.779L64.821 5.12427V9.43016L100.176 29.9273L103.879 27.779Z" fill="#E1E1E1"/>
<path d="M64.8209 5.12427L25.7634 27.779L29.4664 29.9273L64.8209 9.43016V5.12427Z" fill="#BEC3C7"/>
<path d="M10.4977 109.47L8.56287 108.345V111.563C8.56287 112.148 9.43308 113.116 10.4977 113.116C11.5623 113.116 12.4325 112.148 12.4325 111.563V108.345L10.4977 109.47Z" fill="#C69C6C"/>
<path d="M10.4977 106.131L8.56287 105.006V108.345L10.4977 109.47V106.131Z" fill="#A67C52"/>
<path d="M10.4977 109.47L12.4418 108.345V105.006L10.4977 106.131V109.47Z" fill="#A67C52"/>
<path d="M3.26754 100.533L0.684692 102.374L10.4977 108.066V104.727L3.26754 100.533Z" fill="#429664"/>
<path d="M10.4977 108.066L20.3107 102.374L17.7278 100.533L10.4977 104.727V108.066Z" fill="#347F53"/>
<path d="M3.26754 95.4364L0.684692 97.2778L2.04555 98.0683L4.61915 96.2176L3.26754 95.4364Z" fill="#429664"/>
<path d="M18.9591 98.0683L20.3107 97.2778L17.7278 95.4364L16.3762 96.2176L18.9591 98.0683Z" fill="#347F53"/>
<path d="M10.4977 85.1692L0.684692 92.1814L2.04555 92.9626L10.4977 86.9269V85.1692Z" fill="#429664"/>
<path d="M18.9591 92.9626L20.3107 92.1814L10.4977 85.1692V86.9269L18.9591 92.9626Z" fill="#347F53"/>
<path d="M10.4977 102.969L4.61912 99.5562L3.26752 100.533L10.4977 104.727V102.969Z" fill="#347F53"/>
<path d="M7.20198 97.7148L4.61913 96.2175L2.04553 98.0682L4.61913 99.5562L7.20198 97.7148Z" fill="#429664"/>
<path d="M7.20199 97.7148L4.61914 99.5562L10.4977 102.969V99.6306L7.20199 97.7148Z" fill="#429664"/>
<path d="M10.4977 102.969V104.727L17.7278 100.533L16.3762 99.5562L10.4977 102.969Z" fill="#235B39"/>
<path d="M13.7933 97.7148L16.3762 99.5562L18.959 98.0682L16.3762 96.2175L13.7933 97.7148Z" fill="#347F53"/>
<path d="M10.4977 102.969L16.3762 99.5562L13.7934 97.7148L10.4977 99.6306V102.969Z" fill="#347F53"/>
<path d="M10.4977 90.2656V86.9269L2.04553 92.9626L4.61913 94.4599L10.4977 90.2656Z" fill="#429664"/>
<path d="M10.4977 90.2655L4.61914 94.4598L5.98 95.2503L10.4977 92.0232V90.2655Z" fill="#429664"/>
<path d="M8.56283 96.7476L5.97998 95.2503L4.61912 94.4598L3.26752 95.4363L4.61912 96.2175L7.20197 97.7148L10.4977 99.6306V97.8729L8.56283 96.7476Z" fill="#347F53"/>
<path d="M10.4977 95.3619V92.0232L5.97998 95.2503L8.56284 96.7476L10.4977 95.3619Z" fill="#429664"/>
<path d="M10.4977 97.8729V95.3619L8.56287 96.7476L10.4977 97.8729Z" fill="#429664"/>
<path d="M15.0153 95.25L16.3762 96.2168L17.7278 95.4359L16.3762 94.4598L15.0153 95.25Z" fill="#235B39"/>
<path d="M10.4977 90.2656L16.3762 94.4599L18.9591 92.9626L10.4977 86.9269V90.2656Z" fill="#347F53"/>
<path d="M10.4977 92.0232L15.0154 95.2503L16.3762 94.4598L10.4977 90.2655V92.0232Z" fill="#347F53"/>
<path d="M13.7934 97.7149L16.3762 96.2176L15.0154 95.2504L12.4418 96.7477L13.7934 97.7149Z" fill="#235B39"/>
<path d="M10.4977 97.8729V99.6305L13.7934 97.7148L12.4418 96.7476L10.4977 97.8729Z" fill="#235B39"/>
<path d="M10.4977 95.3619L12.4418 96.7476L15.0154 95.2503L10.4977 92.0232V95.3619Z" fill="#347F53"/>
<path d="M12.4418 96.7476L10.4977 95.3619V97.8729L12.4418 96.7476Z" fill="#347F53"/>
<path d="M110.599 115.682L108.665 114.557V117.775C108.665 118.361 109.535 119.328 110.599 119.328C111.664 119.328 112.534 118.361 112.534 117.775V114.557L110.599 115.682Z" fill="#C69C6C"/>
<path d="M110.599 112.334L108.665 111.209V114.557L110.599 115.682V112.334Z" fill="#A67C52"/>
<path d="M110.599 115.682L112.534 114.557V111.209L110.599 112.334V115.682Z" fill="#A67C52"/>
<path d="M103.369 106.736L100.786 108.586L110.599 114.278V110.93L103.369 106.736Z" fill="#429664"/>
<path d="M110.599 114.278L120.412 108.586L117.83 106.736L110.599 110.93V114.278Z" fill="#347F53"/>
<path d="M103.369 101.639L100.786 103.49L102.138 104.271L104.721 102.43L103.369 101.639Z" fill="#429664"/>
<path d="M119.052 104.271L120.412 103.49L117.83 101.639L116.478 102.43L119.052 104.271Z" fill="#347F53"/>
<path d="M110.599 91.3815L100.786 98.3937L102.138 99.1748L110.599 93.1299V91.3815Z" fill="#429664"/>
<path d="M119.052 99.1748L120.412 98.3937L110.599 91.3815V93.1299L119.052 99.1748Z" fill="#347F53"/>
<path d="M110.599 109.182L104.721 105.769L103.369 106.736L110.599 110.93V109.182Z" fill="#347F53"/>
<path d="M107.304 103.927L104.721 102.43L102.138 104.271L104.721 105.769L107.304 103.927Z" fill="#429664"/>
<path d="M107.304 103.927L104.721 105.769L110.599 109.182V105.834L107.304 103.927Z" fill="#429664"/>
<path d="M110.599 109.182V110.93L117.83 106.736L116.478 105.769L110.599 109.182Z" fill="#235B39"/>
<path d="M113.895 103.927L116.478 105.769L119.052 104.271L116.478 102.43L113.895 103.927Z" fill="#347F53"/>
<path d="M110.599 109.182L116.478 105.769L113.895 103.927L110.599 105.834V109.182Z" fill="#347F53"/>
<path d="M110.599 96.4779V93.1299L102.138 99.1749L104.721 100.672L110.599 96.4779Z" fill="#429664"/>
<path d="M110.599 96.4778L104.721 100.672L106.082 101.463L110.599 98.2262V96.4778Z" fill="#429664"/>
<path d="M108.655 102.96L106.082 101.463L104.721 100.672L103.369 101.639L104.721 102.43L107.304 103.927L110.599 105.834V104.085L108.655 102.96Z" fill="#347F53"/>
<path d="M110.599 101.574V98.2263L106.082 101.463L108.655 102.96L110.599 101.574Z" fill="#429664"/>
<path d="M110.6 104.085V101.574L108.655 102.96L110.6 104.085Z" fill="#429664"/>
<path d="M115.117 101.462L116.478 102.429L117.83 101.639L116.478 100.672L115.117 101.462Z" fill="#235B39"/>
<path d="M110.599 96.4779L116.478 100.672L119.052 99.1749L110.599 93.1299V96.4779Z" fill="#347F53"/>
<path d="M110.599 98.2262L115.117 101.463L116.478 100.672L110.599 96.4778V98.2262Z" fill="#347F53"/>
<path d="M113.895 103.927L116.478 102.43L115.117 101.463L112.534 102.96L113.895 103.927Z" fill="#235B39"/>
<path d="M110.599 104.085V105.834L113.895 103.927L112.534 102.96L110.599 104.085Z" fill="#235B39"/>
<path d="M110.599 101.574L112.534 102.96L115.117 101.463L110.599 98.2263V101.574Z" fill="#347F53"/>
<path d="M112.534 102.96L110.599 101.574V104.085L112.534 102.96Z" fill="#347F53"/>
</svg>
